# xmcd
#
# Track frame offsets:
#	150
#	14512
#	29085
#	43457
#	57087
#	70412
#	84785
#	100775
#	111460
#	123265
#	137150
#	151712
#
# Disc length: 2248 seconds
#
# Revision: 0
# Processed by: cddbd v1.5.1PL2 Copyright (c) Steve Scherf et al.
# Submitted via: EasyCDDAExtractor 9.0.2.1
#
DISCID=a208c60c
DTITLE=Beth Carvalho - Traço De União
DYEAR=1982
DGENRE=MPB
TTITLE0=Força Da Imaginação
TTITLE1=Disfarce
TTITLE2=Meu Reino
TTITLE3=Enquanto A Gente Batuca
TTITLE4=Camarim
TTITLE5=Coração Poeta
TTITLE6=Traço De União
TTITLE7=Instinto
TTITLE8=Lua Vadia
TTITLE9=Presente Da Natureza
TTITLE10=Mestre Coração
TTITLE11=Vou Deixar Pra Amanhã
EXTD=
EXTT0=
EXTT1=
EXTT2=
EXTT3=
EXTT4=
EXTT5=
EXTT6=
EXTT7=
EXTT8=
EXTT9=
EXTT10=
EXTT11=
PLAYORDER=
